<svg xmlns="http://www.w3.org/2000/svg" viewBox="0 0 100 100" width="100" height="100">
  <defs>
    <linearGradient id="bg" x1="0" y1="0" x2="100" y2="100" gradientUnits="userSpaceOnUse">
      <stop offset="0%" stop-color="#040b1c"/>
      <stop offset="100%" stop-color="#02060f"/>
    </linearGradient>
    <linearGradient id="body" x1="50" y1="6" x2="50" y2="80" gradientUnits="userSpaceOnUse">
      <stop offset="0%" stop-color="#0a1830"/>
      <stop offset="100%" stop-color="#020a14"/>
    </linearGradient>
    <linearGradient id="edge" x1="0" y1="0" x2="100" y2="0" gradientUnits="userSpaceOnUse">
      <stop offset="0%" stop-color="#22e0ff"/>
      <stop offset="100%" stop-color="#5cf2ff"/>
    </linearGradient>
  </defs>
  <rect width="100" height="100" rx="22" fill="url(#bg)"/>
  <path d="M 94 50 L 88 43 L 64 36 L 48 12 L 40 38 L 22 44 L 6 22 L 18 48 L 18 52 L 6 82 L 20 56 L 44 60 L 36 84 L 52 60 L 90 56 Z" fill="url(#body)"/>
  <path d="M 91 49 L 66 39 L 48 14 L 41 36" stroke="url(#edge)" stroke-width="1.6" stroke-linecap="round" stroke-linejoin="round" fill="none"/>
  <g stroke="#22e0ff" stroke-width="0.9" stroke-linecap="round" fill="none">
    <path d="M 50 40 L 58 40 L 60 42 L 70 42"/>
    <path d="M 54 44 L 64 44 L 66 46 L 72 46"/>
  </g>
  <ellipse cx="83" cy="47" rx="2.6" ry="1.5" transform="rotate(-12 83 47)" fill="#22e0ff"/>
</svg>
